<svg xmlns="http://www.w3.org/2000/svg" viewBox="0 0 720 560" fill="none">
  <rect width="720" height="560" fill="#ffffff"/>

  <rect x="24" y="24" width="672" height="512" rx="4" fill="#ffffff" stroke="#d1d1d1" stroke-width="1.5"/>
  <rect x="24" y="24" width="672" height="74" rx="4" fill="#1a1a1a"/>
  <text x="52" y="62" font-family="Inter, Helvetica Neue, Arial, sans-serif" font-size="16" font-weight="800" letter-spacing="1.6" fill="#ffffff">RESPONSE PREP MAP</text>
  <text x="506" y="62" font-family="Inter, Helvetica Neue, Arial, sans-serif" font-size="12" font-weight="700" letter-spacing="1.1" fill="#3388ff">BEFORE SHOPIFY SUBMIT</text>

  <text x="52" y="136" font-family="Inter, Helvetica Neue, Arial, sans-serif" font-size="19" font-weight="700" fill="#1a1a1a">Group evidence by the question it answers.</text>
  <g aria-label="Shopify color badge" role="img">
    <rect x="576" y="111" width="82" height="30" rx="15" fill="#95bf47"/>
    <circle cx="592" cy="126" r="5" fill="#ffffff"/>
    <text x="605" y="131" font-family="Inter, Helvetica Neue, Arial, sans-serif" font-size="9" font-weight="800" letter-spacing=".6" fill="#ffffff">SHOPIFY</text>
  </g>
  <text x="52" y="166" font-family="Inter, Helvetica Neue, Arial, sans-serif" font-size="14" fill="#666666">Not by where the screenshot came from.</text>

  <g>
    <rect x="52" y="204" width="616" height="50" rx="4" fill="#f9f9f9" stroke="#d1d1d1"/>
    <rect x="72" y="220" width="18" height="18" rx="3" fill="#3388ff"/>
    <text x="108" y="235" font-family="Inter, Helvetica Neue, Arial, sans-serif" font-size="15" font-weight="700" fill="#1a1a1a">What was purchased?</text>
  </g>

  <g>
    <rect x="52" y="266" width="616" height="50" rx="4" fill="#ffffff" stroke="#d1d1d1"/>
    <rect x="72" y="282" width="18" height="18" rx="3" fill="#3388ff"/>
    <text x="108" y="297" font-family="Inter, Helvetica Neue, Arial, sans-serif" font-size="15" font-weight="700" fill="#1a1a1a">Was it fulfilled or delivered?</text>
  </g>

  <g>
    <rect x="52" y="328" width="616" height="50" rx="4" fill="#f9f9f9" stroke="#d1d1d1"/>
    <rect x="72" y="344" width="18" height="18" rx="3" fill="#3388ff"/>
    <text x="108" y="359" font-family="Inter, Helvetica Neue, Arial, sans-serif" font-size="15" font-weight="700" fill="#1a1a1a">What did the customer say?</text>
  </g>

  <g>
    <rect x="52" y="390" width="616" height="50" rx="4" fill="#ffffff" stroke="#d1d1d1"/>
    <rect x="72" y="406" width="18" height="18" rx="3" fill="#ff6b4a"/>
    <text x="108" y="421" font-family="Inter, Helvetica Neue, Arial, sans-serif" font-size="15" font-weight="700" fill="#1a1a1a">Was a refund requested or issued?</text>
  </g>

  <g>
    <rect x="52" y="452" width="616" height="50" rx="4" fill="#f9f9f9" stroke="#d1d1d1"/>
    <rect x="72" y="468" width="18" height="18" rx="3" fill="#ff6b4a"/>
    <text x="108" y="483" font-family="Inter, Helvetica Neue, Arial, sans-serif" font-size="15" font-weight="700" fill="#1a1a1a">Which policy or timeline matters?</text>
  </g>
</svg>
